<svg height="auto" width="auto" viewBox="25 0 2000 1400" xmlns="http://www.w3.org/2000/svg"><path d="M0 1319.574c50-26.509 400-210.351 500-265.088 100-54.737 400-251.875 500-282.281 100-30.406 400 36.86 500-21.78s450-508.16 500-564.622V1400H0Z" fill="transparent"/><path d="M0 1319.574c50-26.509 400-210.351 500-265.088 100-54.737 400-251.875 500-282.281 100-30.406 400 36.86 500-21.78s450-508.16 500-564.622" fill="none" stroke="#69c07b" stroke-width="10"/><g fill="#69c07b"><circle cy="1319.574" r="14"/><circle cx="500" cy="1054.486" r="14"/><circle cx="1000" cy="772.205" r="14"/><circle cx="1500" cy="750.425" r="14"/><circle cx="2000" cy="185.803" r="14"/></g></svg>